<?xml version="1.0" encoding="UTF-8"?>
<svg version="1.1" xmlns="http://www.w3.org/2000/svg" width="499" height="499">
<path d="M0 0 C7.99968313 3.57340772 15.685135 8.92264099 22 15 C22 15.66 22 16.32 22 17 C22.5969165 17.2678833 23.19383301 17.5357666 23.80883789 17.81176758 C26.02552341 19.01384094 27.35580478 20.17170256 29.05859375 22.01171875 C29.60966797 22.60533203 30.16074219 23.19894531 30.72851562 23.81054688 C31.29248047 24.42994141 31.85644531 25.04933594 32.4375 25.6875 C32.99759766 26.28755859 33.55769531 26.88761719 34.13476562 27.50585938 C44 38.22293429 44 38.22293429 44 42 C44.66 42 45.32 42 46 42 C47.06567383 43.40185547 47.06567383 43.40185547 48.20703125 45.3671875 C48.62919922 46.0890625 49.05136719 46.8109375 49.48632812 47.5546875 C50.1427832 48.70324219 50.1427832 48.70324219 50.8125 49.875 C51.23853516 50.60203125 51.66457031 51.3290625 52.10351562 52.078125 C57.34072567 61.11052961 61.61504912 70.0057862 64.6875 80 C64.98205078 80.92039062 65.27660156 81.84078125 65.58007812 82.7890625 C72.17574597 103.83591269 72.86755006 126.1492054 71 148 C70.94859863 148.71833008 70.89719727 149.43666016 70.84423828 150.17675781 C69.57096357 167.51444739 63.44170313 187.38786258 51 200 C50.21625 200.845625 49.4325 201.69125 48.625 202.5625 C38.73412396 211.74688489 29.59021358 215.70695757 16 215.5 C14.98421875 215.51546875 13.9684375 215.5309375 12.921875 215.546875 C0.40041447 215.48266238 -9.60245787 210.24689357 -18.48828125 201.5703125 C-25.42156862 194.10369533 -29.34389013 187.10773258 -32.0625 177.375 C-32.31854004 176.46347168 -32.57458008 175.55194336 -32.83837891 174.61279297 C-41.47533746 142.55543759 -39.94669907 105.73113386 -24 76 C-23.46117187 74.94296875 -22.92234375 73.8859375 -22.3671875 72.796875 C-16.31846348 61.50929796 -8.44498505 49.63510966 2 42 C3.65 42.66 5.3 43.32 7 44 C7 44.66 7 45.32 7 46 C7.66 46 8.32 46 9 46 C9 46.66 9 47.32 9 48 C9.66 48 10.32 48 11 48 C12.62109375 49.609375 12.62109375 49.609375 14.4375 51.75 C15.03433594 52.44609375 15.63117188 53.1421875 16.24609375 53.859375 C17.11427734 54.91898438 17.11427734 54.91898438 18 56 C18.57492188 56.6909375 19.14984375 57.381875 19.7421875 58.09375 C21 60 21 60 20.6875 62.75 C20.460625 63.4925 20.23375 64.235 20 65 C19.34 65 18.68 65 18 65 C17.7421875 65.56203125 17.484375 66.1240625 17.21875 66.703125 C15.85830223 69.26704579 14.27211038 71.45226365 12.5 73.75 C11.8915625 74.54921875 11.283125 75.3484375 10.65625 76.171875 C10.1096875 76.77515625 9.563125 77.3784375 9 78 C8.34 78 7.68 78 7 78 C6.74992187 78.66257812 6.49984375 79.32515625 6.2421875 80.0078125 C5.29369703 82.29254112 4.29628743 84.46984938 3.1953125 86.6796875 C-9.27393921 111.80447853 -13.5175471 141.6431474 -5.12109375 168.84765625 C-4.22358306 171.0369815 -3.23354959 172.98297972 -2 175 C-1.5565625 175.72703125 -1.113125 176.4540625 -0.65625 177.203125 C2.5531928 181.94900319 5.30720845 184.45619212 11 186 C16.84826458 186.92896622 21.22241149 186.17762733 26.0859375 182.73828125 C36.48511173 173.29413322 39.46225114 160.23832049 42 147 C42.17273438 146.20996582 42.34546875 145.41993164 42.5234375 144.60595703 C46.27873459 124.07109992 42.45415284 98.96533216 34 80 C33.72704102 79.37754395 33.45408203 78.75508789 33.17285156 78.11376953 C26.82512773 63.85769363 18.24379534 50.93852187 6.3125 40.75 C5.73113281 40.24984375 5.14976562 39.7496875 4.55078125 39.234375 C3.00388466 37.91564199 3.00388466 37.91564199 1 37 C1 36.34 1 35.68 1 35 C0.46375 34.74605469 -0.0725 34.49210937 -0.625 34.23046875 C-15.99336772 26.26823876 -15.99336772 26.26823876 -19 18 C-19.71011208 13.02921541 -18.9262559 9.71235233 -16.25390625 5.578125 C-11.90104063 0.09975207 -6.64062297 -1.49490287 0 0 Z " fill="#F6F6F5" transform="translate(160,143)"/>
<path d="M0 0 C1.22920166 0.00418945 2.45840332 0.00837891 3.72485352 0.01269531 C12.92641184 0.12681187 21.3564235 0.92241543 30.25 3.3125 C31.35730469 3.60253906 32.46460938 3.89257812 33.60546875 4.19140625 C60.62283644 11.9060429 82.48420309 27.08643089 98.25 50.3125 C98.73082031 50.9621875 99.21164062 51.611875 99.70703125 52.28125 C112.68123809 70.29502479 119.14259482 92.60704291 122.25 114.3125 C122.38148438 115.1478125 122.51296875 115.983125 122.6484375 116.84375 C125.75264682 139.32829321 121.77818123 164.80191169 108.25 183.3125 C107.486875 184.385 106.72375 185.4575 105.9375 186.5625 C98.75465988 193.91238291 90.37611871 199.23157012 79.97265625 199.74609375 C78.08601425 199.76316149 76.19916573 199.76420488 74.3125 199.75 C73.37470703 199.76998047 72.43691406 199.78996094 71.47070312 199.81054688 C59.71150978 199.80237509 51.48737811 194.45033276 43.25 186.3125 C32.51469388 172.92264545 29.87658888 155.08379134 31.54760742 138.32836914 C31.95822279 135.22890959 32.42880404 132.14736398 32.9375 129.0625 C33.11829102 127.96349365 33.29908203 126.8644873 33.48535156 125.73217773 C34.96107116 117.20028101 36.97276255 109.35265588 40.25 101.3125 C40.66741455 100.26835937 40.66741455 100.26835937 41.09326172 99.203125 C46.84002654 84.98073677 53.97922504 71.78087281 64.25 60.3125 C66.42578125 60.35546875 66.42578125 60.35546875 69.25 61.3125 C71.30917901 63.53800025 72.84661202 66.05214183 74.4375 68.625 C75.09395508 69.64110352 75.09395508 69.64110352 75.76367188 70.67773438 C81.31005527 79.34025379 81.31005527 79.34025379 81.10546875 82.65234375 C80.01491747 86.04351006 78.38914145 88.81668031 76.5625 91.875 C75.83011382 93.13300024 75.09966863 94.39213235 74.37109375 95.65234375 C74.00999512 96.2747998 73.64889648 96.89725586 73.27685547 97.53857422 C64.71037868 112.33743783 59.11474706 129.00412763 59 146.1875 C58.979375 146.95191406 58.95875 147.71632813 58.9375 148.50390625 C58.88557191 156.15031738 60.78088379 162.677653 66.25 168.3125 C69.75480824 170.85046459 73.02580892 170.80532229 77.25 170.3125 C84.51963627 167.54244517 88.00198457 162.11939703 91.25 155.3125 C100.2965784 130.75750148 92.59633945 100.09483366 82.25 77.3125 C80.76897672 74.62419709 79.22386536 72.03051951 77.546875 69.4609375 C76.15415231 67.15371618 75.18809564 64.83473828 74.25 62.3125 C73.59 62.3125 72.93 62.3125 72.25 62.3125 C72.25 61.6525 72.25 60.9925 72.25 60.3125 C71.59 60.3125 70.93 60.3125 70.25 60.3125 C70.25 59.6525 70.25 58.9925 70.25 58.3125 C69.59 58.3125 68.93 58.3125 68.25 58.3125 C66.56014833 56.66934544 64.89775595 54.99786521 63.25 53.3125 C51.26029615 42.94622572 38.002312 35.12843749 22.25 32.3125 C21.2496875 32.11011719 20.249375 31.90773437 19.21875 31.69921875 C8.95945318 29.83273777 -2.50422702 29.00409361 -12.75 31.3125 C-16.64242647 31.75465645 -19.76395819 32.03204403 -23.0625 29.625 C-24.75 27.3125 -24.75 27.3125 -26.02734375 25.046875 C-28.42209737 21.24567878 -31.40732462 17.99280462 -34.4296875 14.68554688 C-37.72416656 10.90460233 -37.72416656 10.90460233 -37.84765625 8.07421875 C-36.2753101 5.55063116 -34.73439883 5.13980604 -31.9375 4.1875 C-30.62845703 3.71957031 -30.62845703 3.71957031 -29.29296875 3.2421875 C-19.55432033 0.68673179 -10.04382506 -0.04695635 0 0 Z " fill="#F6F5F4" transform="translate(233.75,158.6875)"/>
<path d="M0 0 C0 0.66 0 1.32 0 2 C0.66 2 1.32 2 2 2 C4.37629272 6.60406715 4.55443941 10.93850472 4 16 C2.56345731 20.4786331 0.63634327 22.95893768 -3.59375 25.13671875 C-7.37423702 26.49302984 -11.27491574 27.15000363 -15.22290039 27.84960938 C-20.3267574 28.77631738 -24.94194675 30.26651272 -29.73046875 32.23046875 C-32 33 -32 33 -36 33 C-36.59748047 31.87851563 -36.59748047 31.87851563 -37.20703125 30.734375 C-37.73683594 29.74953125 -38.26664062 28.7646875 -38.8125 27.75 C-39.33457031 26.77546875 -39.85664063 25.8009375 -40.39453125 24.796875 C-41.90755519 22.02207169 -41.90755519 22.02207169 -43.69921875 19.765625 C-45 18 -45 18 -45 16 C-45.66 16 -46.32 16 -47 16 C-48.27732699 13.89616731 -49.02762804 12.53237103 -48.8984375 10.04296875 C-46.98171295 5.6845038 -41.25300681 4.40891331 -37.06396484 2.76123047 C-10.72139935 -6.9544212 -10.72139935 -6.9544212 0 0 Z " fill="#F5F4F4" transform="translate(375,185)"/>
<path d="M0 0 C2.60519774 1.10697047 4.64181645 2.39442822 7 4 C4.50907189 5.24546405 3.58919267 4.7767578 1 4 C1 3.34 1 2.68 1 2 C-0.3303125 2.2784375 -0.3303125 2.2784375 -1.6875 2.5625 C-4.85178811 2.98042484 -6.94839642 2.80777742 -10 2 C-10.2475 2.556875 -10.495 3.11375 -10.75 3.6875 C-12 6 -12 6 -14.125 8.25 C-16.78545997 12.15200795 -16.44551513 14.32209117 -16 19 C-15.62368888 21.42218117 -15.62368888 21.42218117 -14 23 C-11.6859378 23.73075648 -9.35171131 24.40138258 -7 25 C-6 27 -5 29 -4 31 C-9.76562872 29.07812376 -14.52558295 26.18784466 -17.9375 21.125 C-19.3743035 16.89910736 -19.90042612 13.42148492 -18.30859375 9.140625 C-14.42551829 1.53694586 -8.3735297 -1.50665586 0 0 Z " fill="#948E8E" transform="translate(160,143)"/>
<path d="M0 0 C7.47195799 11.20793699 4.52627163 31.16801258 3 44 C2.67 44.66 2.34 45.32 2 46 C1.34 46 0.68 46 0 46 C-0.12534512 39.60739898 -0.12534512 39.60739898 0.49560547 36.59838867 C1.02457353 33.87340945 1.12939552 31.38713587 1.1328125 28.61328125 C1.13410156 27.59169922 1.13539063 26.57011719 1.13671875 25.51757812 C1.13285156 24.45990234 1.12898437 23.40222656 1.125 22.3125 C1.12886719 21.27416016 1.13273438 20.23582031 1.13671875 19.16601562 C1.12863221 12.71699739 0.78207457 6.4017881 0 0 Z " fill="#BDB9B8" transform="translate(202,251)"/>
<path d="M0 0 C2.60519774 1.10697047 4.64181645 2.39442822 7 4 C4.50907189 5.24546405 3.58919267 4.7767578 1 4 C1 3.34 1 2.68 1 2 C-0.3303125 2.2784375 -0.3303125 2.2784375 -1.6875 2.5625 C-4.85178811 2.98042484 -6.94839642 2.80777742 -10 2 C-10.226875 2.556875 -10.45375 3.11375 -10.6875 3.6875 C-12.35896766 6.63246684 -14.55276352 8.68156544 -17 11 C-16.19882037 6.83386592 -15.54954073 4.52273386 -12.4375 1.5625 C-8.08741344 -0.41481207 -4.70152707 -0.84594951 0 0 Z " fill="#AAA0A0" transform="translate(160,143)"/>
<path d="M0 0 C1.32 0.33 2.64 0.66 4 1 C1.50115838 8.09062166 -3.38781846 14.86777261 -10 18.625 C-10.99 19.07875 -11.98 19.5325 -13 20 C-13 18 -13 18 -11.625 16.375 C-10 15 -10 15 -8 15 C-7.5978125 13.6078125 -7.5978125 13.6078125 -7.1875 12.1875 C-5.41760562 7.43673086 -3.38137016 6.19068508 1 4 C1.33 3.34 1.66 2.68 2 2 C1.34 2 0.68 2 0 2 C0 1.34 0 0.68 0 0 Z " fill="#BAB5B3" transform="translate(214,331)"/>
<path d="M0 0 C-4.98969072 15.98969072 -4.98969072 15.98969072 -9 20 C-8.68377223 17.99722415 -8.34450114 15.99810662 -8 14 C-7.87753906 13.18015625 -7.75507813 12.3603125 -7.62890625 11.515625 C-6.47731849 4.62648052 -6.47731849 4.62648052 -4 1.375 C-2 0 -2 0 0 0 Z " fill="#C1BDBD" transform="translate(227,312)"/>
<path d="M0 0 C0.33 0.66 0.66 1.32 1 2 C0.67 2.99 0.34 3.98 0 5 C-0.66 5 -1.32 5 -2 5 C-1.87625 6.8871875 -1.87625 6.8871875 -1.75 8.8125 C-1.73828125 11.0390625 -1.73828125 11.0390625 -2 13 C-3.9375 14.6875 -3.9375 14.6875 -6 16 C-6.8042208 18.59855733 -6.8042208 18.59855733 -7 21 C-7.99 21.33 -8.98 21.66 -10 22 C-9.37878403 17.06909826 -7.24180873 13.10820158 -5 8.75 C-4.44699219 7.65171875 -4.44699219 7.65171875 -3.8828125 6.53125 C-1.15472274 1.15472274 -1.15472274 1.15472274 0 0 Z " fill="#ADABAA" transform="translate(286,236)"/>
<path d="M0 0 C4.7734375 0.7421875 4.7734375 0.7421875 6.8125 3.0625 C7.204375 3.701875 7.59625 4.34125 8 5 C7.67 5.66 7.34 6.32 7 7 C5.35 6.01 3.7 5.02 2 4 C-2.2026393 6.63886654 -5.56638098 9.36440339 -9 13 C-7.47987323 7.59510481 -3.72614782 4.01507372 0 0 Z " fill="#A6A3A2" transform="translate(298,219)"/>
<path d="M0 0 C0.66 0.33 1.32 0.66 2 1 C1.505 1.7425 1.01 2.485 0.5 3.25 C-1.31923475 6.06318188 -1.31923475 6.06318188 -1 10 C-3.50484597 12.41847197 -4.46013806 13 -8 13 C-8 13.66 -8 14.32 -8 15 C-8.99 15 -9.98 15 -11 15 C-9.3718356 11.24269753 -6.98598083 8.383177 -4.375 5.25 C-3.55773437 4.26515625 -2.74046875 3.2803125 -1.8984375 2.265625 C-1.27195313 1.51796875 -0.64546875 0.7703125 0 0 Z " fill="#C9C7C6" transform="translate(157,189)"/>
<path d="M0 0 C0.33 0.99 0.66 1.98 1 3 C1.928125 3.2165625 1.928125 3.2165625 2.875 3.4375 C5.7073715 4.1872454 6.44987517 5.59730651 8 8 C7.34 9.32 6.68 10.64 6 12 C0.19794344 6.35475578 0.19794344 6.35475578 -2 3 C-2 2.34 -2 1.68 -2 1 C-1.34 0.67 -0.68 0.34 0 0 Z " fill="#EAE9E6" transform="translate(136,332)"/>
<path d="M0 0 C4.76666667 3.3 4.76666667 3.3 5.875 6.625 C6 9 6 9 5 11 C4.34 11 3.68 11 3 11 C2.34 12.32 1.68 13.64 1 15 C0.19139355 12.57418066 -0.03325603 11.15796615 0.5 8.625 C1.09456401 5.50353897 0.64642077 3.08845478 0 0 Z " fill="#B6B1B0" transform="translate(175,197)"/>
<path d="M0 0 C-1 3 -1 3 -2.625 4.3125 C-4.37258338 6.05275594 -4.37258338 6.05275594 -3.6875 9.1875 C-3.460625 10.115625 -3.23375 11.04375 -3 12 C-8.57142857 6.85714286 -8.57142857 6.85714286 -9 3 C-5.55930376 0.70620251 -4.27709699 0 0 0 Z " fill="#B9B5B4" transform="translate(205,163)"/>
<path d="M0 0 C1.65 0 3.3 0 5 0 C7.125 5.625 7.125 5.625 6 9 C5.96125079 10.66621616 5.9549714 12.33394172 6 14 C4.31821339 11.47732009 3.09893258 9.18908177 1.875 6.4375 C1.52179688 5.65246094 1.16859375 4.86742187 0.8046875 4.05859375 C0 2 0 2 0 0 Z " fill="#BBB7B8" transform="translate(193,219)"/>
<path d="M0 0 C6.26418531 1.48362284 10.91513505 5.24162156 16 9 C12.93109813 10.53445094 10.29905734 9.54984289 7 9 C6.67 7.35 6.34 5.7 6 4 C3.69 4 1.38 4 -1 4 C-0.67 2.68 -0.34 1.36 0 0 Z " fill="#B4B1B0" transform="translate(292,174)"/>
<path d="M0 0 C1.04702186 3.7264085 1.07442057 7.13013042 1 11 C0.360625 11.2475 -0.27875 11.495 -0.9375 11.75 C-3.18741541 12.81562433 -3.18741541 12.81562433 -3.75 15.125 C-3.8325 15.74375 -3.915 16.3625 -4 17 C-5.6852084 12.92320841 -4.16939007 10.16924407 -2.5625 6.25 C-2.08941406 5.07953125 -1.61632812 3.9090625 -1.12890625 2.703125 C-0.75636719 1.81109375 -0.38382812 0.9190625 0 0 Z " fill="#C9C6C6" transform="translate(275,258)"/>
<path d="M0 0 C-3.37985579 2.25323719 -6.40425409 2.84465891 -10.3125 3.5625 C-11.60800781 3.81128906 -12.90351563 4.06007812 -14.23828125 4.31640625 C-17.48814948 4.90698459 -20.73989045 5.46928449 -24 6 C-23.67 5.01 -23.34 4.02 -23 3 C-7.25512528 -0.44419134 -7.25512528 -0.44419134 0 0 Z " fill="#948E8F" transform="translate(372,209)"/>
<path d="M0 0 C1.30835788 3.92507365 0.32603515 5.2034861 -1.3125 8.9375 C-1.98732422 10.49791016 -1.98732422 10.49791016 -2.67578125 12.08984375 C-3.73710026 14.42224097 -4.83015586 16.7207262 -6 19 C-6.09764874 14.21521178 -5.77112541 9.72314313 -5 5 C-3.68 4.67 -2.36 4.34 -1 4 C-0.67 2.68 -0.34 1.36 0 0 Z " fill="#B1ACAD" transform="translate(302,261)"/>
<path d="M0 0 C0 1.98 0 3.96 0 6 C-0.66 6 -1.32 6 -2 6 C-2.33 7.32 -2.66 8.64 -3 10 C-4.32 9.67 -5.64 9.34 -7 9 C-4.6 0 -4.6 0 0 0 Z " fill="#E6E4E2" transform="translate(293,229)"/>
<path d="M0 0 C0.66 0.99 1.32 1.98 2 3 C1.3503125 3.7734375 1.3503125 3.7734375 0.6875 4.5625 C-1.19148425 7.08782438 -1.19148425 7.08782438 -2.5 10.6875 C-2.995 11.780625 -3.49 12.87375 -4 14 C-4.99 14.33 -5.98 14.66 -7 15 C-5.67231025 9.20644472 -3.33455096 4.9000081 0 0 Z " fill="#B9B4B6" transform="translate(140,212)"/>
<path d="M0 0 C0.66 0.33 1.32 0.66 2 1 C0.68 1.33 -0.64 1.66 -2 2 C-2.33 3.65 -2.66 5.3 -3 7 C-3.54140625 6.69320313 -4.0828125 6.38640625 -4.640625 6.0703125 C-7.34450508 4.84371789 -9.82462658 4.36256224 -12.75 3.875 C-13.73484375 3.70742188 -14.7196875 3.53984375 -15.734375 3.3671875 C-16.85585937 3.18542969 -16.85585937 3.18542969 -18 3 C-18 2.34 -18 1.68 -18 1 C-17.360625 1.165 -16.72125 1.33 -16.0625 1.5 C-10.15184752 2.46500449 -5.38401255 2.69769762 0 0 Z " fill="#A8A5A4" transform="translate(184,327)"/>
<path d="M0 0 C0.33 0.66 0.66 1.32 1 2 C3.31 2 5.62 2 8 2 C5.15314251 4.31966166 2.5236125 5.91581154 -1 7 C-1.99 6.67 -2.98 6.34 -4 6 C-4 5.34 -4 4.68 -4 4 C-3.34 4 -2.68 4 -2 4 C-1.34 2.68 -0.68 1.36 0 0 Z " fill="#BAB5B3" transform="translate(192,350)"/>
<path d="M0 0 C2.9555377 2.75170751 5.11563315 5.41970299 7 9 C7 9.66 7 10.32 7 11 C5.68 10.67 4.36 10.34 3 10 C3 9.34 3 8.68 3 8 C2.01 7.67 1.02 7.34 0 7 C-1.04449911 3.86650268 -0.93423645 3.01031744 0 0 Z " fill="#CDC9C8" transform="translate(306,226)"/>
<path d="M0 0 C2.46968633 2.46968633 3.06997969 4.57488587 4.1875 7.875 C4.55230469 8.92429688 4.91710937 9.97359375 5.29296875 11.0546875 C5.98462433 13.93594885 6.03230681 15.27786612 5 18 C2.9375 15.6875 2.9375 15.6875 1 13 C1.33 12.01 1.66 11.02 2 10 C1.3409159 8.33032028 0.67349161 6.66392045 0 5 C-0.125 2.1875 -0.125 2.1875 0 0 Z " fill="#ACA4A2" transform="translate(219,210)"/>
<path d="M0 0 C14.78132118 -0.18451025 14.78132118 -0.18451025 21 1 C21 1.33 21 1.66 21 2 C17.7 2 14.4 2 11 2 C10.67 2.66 10.34 3.32 10 4 C9.34 4 8.68 4 8 4 C8 3.34 8 2.68 8 2 C5.36 1.67 2.72 1.34 0 1 C0 0.67 0 0.34 0 0 Z " fill="#C9C7C4" transform="translate(240,160)"/>
<path d="M0 0 C9.90131579 5.65789474 9.90131579 5.65789474 12 11 C10.68 11.33 9.36 11.66 8 12 C7.67 11.01 7.34 10.02 7 9 C6.34 8.67 5.68 8.34 5 8 C5 7.34 5 6.68 5 6 C4.175 5.34 3.35 4.68 2.5 4 C1.675 3.34 0.85 2.68 0 2 C0 1.34 0 0.68 0 0 Z " fill="#B4AFAE" transform="translate(308,184)"/>
<path d="M0 0 C2.11126943 4.22253885 2.2171997 6.14001523 2.125 10.75 C2.10695313 11.92046875 2.08890625 13.0909375 2.0703125 14.296875 C2.03550781 15.63492187 2.03550781 15.63492187 2 17 C1.87625 16.360625 1.7525 15.72125 1.625 15.0625 C1.41875 14.381875 1.2125 13.70125 1 13 C0.34 12.67 -0.32 12.34 -1 12 C-0.67 8.04 -0.34 4.08 0 0 Z " fill="#B7B0AE" transform="translate(353,261)"/>
<path d="M0 0 C0.7734375 0.433125 0.7734375 0.433125 1.5625 0.875 C4.1187414 2.17432248 4.1187414 2.17432248 7.625 2.6875 C8.73875 3.120625 9.8525 3.55375 11 4 C12.4375 7.625 12.4375 7.625 13 11 C11 11 11 11 8.75 8.8125 C7.8425 7.884375 6.935 6.95625 6 6 C4.90623678 5.07094466 3.80217375 4.15386074 2.6875 3.25 C1.800625 2.5075 0.91375 1.765 0 1 C0 0.67 0 0.34 0 0 Z " fill="#999595" transform="translate(291,206)"/>
<path d="M0 0 C-1 2 -1 2 -3.25 3.125 C-6.01613295 4.00513321 -8.12048351 4.1645438 -11 4 C-10.34 3.67 -9.68 3.34 -9 3 C-9 2.01 -9 1.02 -9 0 C-5.93109813 -1.53445094 -3.29905734 -0.54984289 0 0 Z " fill="#D4CFD0" transform="translate(328,353)"/>
<path d="M0 0 C0.33 0 0.66 0 1 0 C1.16713443 4.34549507 1.11265602 7.19721917 -1 11 C-0.67 11.66 -0.34 12.32 0 13 C-1.98 13.99 -3.96 14.98 -6 16 C-5.71382813 15.29488281 -5.42765625 14.58976562 -5.1328125 13.86328125 C-3.99523169 10.98794768 -2.92607644 8.09547814 -1.875 5.1875 C-1.34519531 3.72376953 -1.34519531 3.72376953 -0.8046875 2.23046875 C-0.53914063 1.49441406 -0.27359375 0.75835937 0 0 Z " fill="#959392" transform="translate(327,307)"/>
<path d="M0 0 C2 3 2 3 2 5 C2.66 5 3.32 5 4 5 C4.33 8.3 4.66 11.6 5 15 C2.51496535 12.51496535 2.06380351 10.32438596 1 7 C0.608125 6.278125 0.21625 5.55625 -0.1875 4.8125 C-1 3 -1 3 0 0 Z " fill="#C9C3C1" transform="translate(148,294)"/>
<path d="M0 0 C0 3 0 3 -2 6 C-2.66 6 -3.32 6 -4 6 C-4.66 7.65 -5.32 9.3 -6 11 C-8 8 -8 8 -8 6 C-7.01 6 -6.02 6 -5 6 C-4.731875 5.195625 -4.46375 4.39125 -4.1875 3.5625 C-3.795625 2.716875 -3.40375 1.87125 -3 1 C-2.01 0.67 -1.02 0.34 0 0 Z " fill="#B4B1AE" transform="translate(171,215)"/>
<path d="M0 0 C0.33 0.66 0.66 1.32 1 2 C1.7425 1.7525 2.485 1.505 3.25 1.25 C4.1575 1.1675 5.065 1.085 6 1 C8.3125 2.9375 8.3125 2.9375 10 5 C3.64416673 4.13329546 -2.67551301 3.06965872 -9 2 C-9 1.67 -9 1.34 -9 1 C-4.545 0.505 -4.545 0.505 0 0 Z " fill="#9F9999" transform="translate(258,188)"/>
<path d="M0 0 C0 0.66 0 1.32 0 2 C0.66 2.33 1.32 2.66 2 3 C2 3.66 2 4.32 2 5 C-1.71888239 4.49287967 -4.73454239 3.88391785 -8 2 C-4.77208445 -0.1519437 -3.71599191 -0.20086443 0 0 Z " fill="#C1BFBE" transform="translate(162,352)"/>
<path d="M0 0 C1.32 0.33 2.64 0.66 4 1 C1.69 3.97 -0.62 6.94 -3 10 C-3.66 8.68 -4.32 7.36 -5 6 C-4.360625 5.7525 -3.72125 5.505 -3.0625 5.25 C-0.81258459 4.18437567 -0.81258459 4.18437567 -0.25 1.875 C-0.1675 1.25625 -0.085 0.6375 0 0 Z " fill="#C0B7B7" transform="translate(341,337)"/>
<path d="M0 0 C0.33 0.66 0.66 1.32 1 2 C1.99 2 2.98 2 4 2 C3.01 5.96 2.02 9.92 1 14 C0.67 14 0.34 14 0 14 C0.03255208 11.98177083 0.06510417 9.96354167 0.09765625 7.9453125 C0.12649242 5.91814596 0.12649242 5.91814596 -1 4 C-0.5625 1.875 -0.5625 1.875 0 0 Z " fill="#BCB7B7" transform="translate(153,239)"/>
<path d="M0 0 C3.37592733 1.73911408 4.36608502 4.73025629 6.0625 8.0625 C2.28522911 6.24940997 -1.31019822 4.1551741 -4.9375 2.0625 C-1.9375 0.0625 -1.9375 0.0625 0 0 Z " fill="#B2ADAD" transform="translate(284.9375,197.9375)"/>
<path d="M0 0 C0 0.66 0 1.32 0 2 C-3.21182149 3.90608098 -5.53882603 4.22266247 -9.25 4.125 C-10.14203125 4.10695312 -11.0340625 4.08890625 -11.953125 4.0703125 C-12.96632813 4.03550781 -12.96632813 4.03550781 -14 4 C-10.28835785 0.28835785 -5.09745779 -0.30893684 0 0 Z " fill="#AAA8A7" transform="translate(358,183)"/>
<path d="M0 0 C4.69564393 3.31457218 7.72469104 7.36279281 11 12 C6.25 11.25 6.25 11.25 4 9 C3.30341637 7.34561387 2.63903117 5.67745682 2 4 C1.34786461 2.65949948 0.68620031 1.32338632 0 0 Z " fill="#ACAAA9" transform="translate(186,163)"/>
<path d="M0 0 C0.66 0 1.32 0 2 0 C2 0.66 2 1.32 2 2 C2.598125 2.268125 3.19625 2.53625 3.8125 2.8125 C6.07100952 4.03854802 7.47062652 4.93534581 9 7 C9.1875 9.6875 9.1875 9.6875 9 12 C5.91910327 9.22719294 4.31224548 6.93673644 3 3 C2.34 3 1.68 3 1 3 C0.67 2.01 0.34 1.02 0 0 Z " fill="#B9B4B4" transform="translate(327,198)"/>
<path d="M0 0 C3.69243752 0.92310938 5.25545743 1.54951556 8 4 C8 4.66 8 5.32 8 6 C7.34 6 6.68 6 6 6 C6.33 6.99 6.66 7.98 7 9 C6.34 9 5.68 9 5 9 C3.35 6.03 1.7 3.06 0 0 Z " fill="#AFABAB" transform="translate(206,180)"/>
<path d="M0 0 C0.66 0 1.32 0 2 0 C2 1.65 2 3.3 2 5 C2.99 5.33 3.98 5.66 5 6 C5 8.97 5 11.94 5 15 C3.25050228 12.37575342 2.34610019 10.44272784 1.375 7.5 C0.98441406 6.33984375 0.98441406 6.33984375 0.5859375 5.15625 C0 3 0 3 0 0 Z " fill="#A19D9D" transform="translate(126,311)"/>
<path d="M0 0 C2.9375 0.375 2.9375 0.375 6 1 C7 3 8 5 9 7 C5.07353523 5.69117841 2.72225079 4.1255472 0 1 C0 0.67 0 0.34 0 0 Z " fill="#BCB2B2" transform="translate(147,167)"/>
<path d="M0 0 C2.31 0 4.62 0 7 0 C7.66 2.31 8.32 4.62 9 7 C2.57142857 2.85714286 2.57142857 2.85714286 0 0 Z " fill="#BFB8B9" transform="translate(280,347)"/>
<path d="M0 0 C1.54627671 2.31941506 2.86182828 4.52979752 4.125 7 C4.47820312 7.680625 4.83140625 8.36125 5.1953125 9.0625 C6 11 6 11 6 14 C0 8 0 8 -0.1953125 6.0546875 C-0.13020833 4.03645833 -0.06510417 2.01822917 0 0 Z " fill="#938B8A" transform="translate(153,309)"/>
<path d="M0 0 C0.66 0 1.32 0 2 0 C2 0.66 2 1.32 2 2 C3.32 2 4.64 2 6 2 C6.33 4.64 6.66 7.28 7 10 C3.66442368 7.0094833 1.84916079 4.06815373 0 0 Z " fill="#B6B2B1" transform="translate(308,222)"/>
<path d="M0 0 C2.16874252 0.50603992 3.99967627 0.99983813 6 2 C6 2.66 6 3.32 6 4 C6.66 4 7.32 4 8 4 C8.33 5.32 8.66 6.64 9 8 C7.68 8 6.36 8 5 8 C5 6.35 5 4.7 5 3 C3.68 3 2.36 3 1 3 C0.67 2.01 0.34 1.02 0 0 Z " fill="#A6A3A2" transform="translate(369,183)"/>
<path d="M0 0 C1.32 0.33 2.64 0.66 4 1 C2.02 3.31 0.04 5.62 -2 8 C-2.33 7.34 -2.66 6.68 -3 6 C-1.44444444 1.44444444 -1.44444444 1.44444444 0 0 Z " fill="#CDC5C2" transform="translate(146,146)"/>
<path d="M0 0 C2.48216332 2.48216332 3.66423314 4.75599476 5 8 C4.6875 10.875 4.6875 10.875 4 13 C1.47519307 10.47519307 1.44261367 8.86176966 0.875 5.375 C0.70742188 4.37210937 0.53984375 3.36921875 0.3671875 2.3359375 C0.24601562 1.56507813 0.12484375 0.79421875 0 0 Z " fill="#9E9999" transform="translate(267,321)"/>
<path d="M0 0 C3 3.75 3 3.75 3 6 C3.66 6 4.32 6 5 6 C5.33 7.32 5.66 8.64 6 10 C5.34 10 4.68 10 4 10 C4 9.34 4 8.68 4 8 C2.68 7.34 1.36 6.68 0 6 C0 4 0 2 0 0 Z " fill="#B4B0B0" transform="translate(157,170)"/>
<path d="M0 0 C0.33 0.99 0.66 1.98 1 3 C-1.06756277 5.7972908 -2.14440371 6.02692273 -5.6875 6.6875 C-6.780625 6.790625 -7.87375 6.89375 -9 7 C-8.1646875 6.38125 -8.1646875 6.38125 -7.3125 5.75 C-4.83804044 3.87743601 -2.4164771 1.94660656 0 0 Z " fill="#9A9292" transform="translate(320,323)"/>
<path d="M0 0 C2 1 2 1 3.1875 2.5625 C4.41397265 6.24191796 3.63426189 9.19442869 3 13 C1.32889958 10.03821227 0.67317248 7.62928808 0.375 4.25 C0.30023438 3.45078125 0.22546875 2.6515625 0.1484375 1.828125 C0.09945312 1.22484375 0.05046875 0.6215625 0 0 Z " fill="#9F9D9C" transform="translate(199,234)"/>
<path d="M0 0 C1.98 1.65 3.96 3.3 6 5 C4.02 5.99 4.02 5.99 2 7 C2 6.01 2 5.02 2 4 C0.68 3.67 -0.64 3.34 -2 3 C-1.34 3 -0.68 3 0 3 C0 2.01 0 1.02 0 0 Z " fill="#A9A6A6" transform="translate(320,195)"/>
<path d="M0 0 C2.375 0.3125 2.375 0.3125 5 1 C5.66 1.99 6.32 2.98 7 4 C6.67 4.99 6.34 5.98 6 7 C1.125 3.375 1.125 3.375 0 0 Z " fill="#BBB8B9" transform="translate(171,187)"/>
<path d="M0 0 C4.875 2.75 4.875 2.75 6 5 C3.36 4.67 0.72 4.34 -2 4 C-1.34 2.68 -0.68 1.36 0 0 Z " fill="#D1CECC" transform="translate(158,322)"/>
<path d="M0 0 C1.18414294 3.55242882 0.69535532 4.69830562 -0.4375 8.1875 C-0.72496094 9.08855469 -1.01242187 9.98960937 -1.30859375 10.91796875 C-1.53675781 11.60503906 -1.76492188 12.29210937 -2 13 C-2.33 13 -2.66 13 -3 13 C-3.92342079 9.39026418 -4.32304543 7.64609085 -2.625 4.25 C-2.08875 3.5075 -1.5525 2.765 -1 2 C-0.67 1.34 -0.34 0.68 0 0 Z " fill="#99938F" transform="translate(353,313)"/>
<path d="M0 0 C0.33 0 0.66 0 1 0 C1.33 3.63 1.66 7.26 2 11 C1.01 11.33 0.02 11.66 -1 12 C-1.08159574 7.83861737 -0.98248524 4.0527516 0 0 Z " fill="#9F9B9B" transform="translate(203,285)"/>
<path d="M0 0 C2.61047801 1.305239 2.68066423 2.35826574 3.625 5.0625 C3.88539063 5.79597656 4.14578125 6.52945313 4.4140625 7.28515625 C4.60742188 7.85105469 4.80078125 8.41695312 5 9 C3.68 8.67 2.36 8.34 1 8 C0 2.25 0 2.25 0 0 Z " fill="#AFACAB" transform="translate(338,221)"/>
<path d="M0 0 C0 0.66 0 1.32 0 2 C-7.42857143 2.28571429 -7.42857143 2.28571429 -11 0 C-3.57142857 -1.28571429 -3.57142857 -1.28571429 0 0 Z " fill="#E3E1E0" transform="translate(255,187)"/>
<path d="M0 0 C1.40907283 2.81814566 0.50872691 4.17277204 -0.4375 7.125 C-0.72496094 8.03507812 -1.01242187 8.94515625 -1.30859375 9.8828125 C-1.53675781 10.58148438 -1.76492188 11.28015625 -2 12 C-2.33 12 -2.66 12 -3 12 C-3.2954439 6.97745369 -2.98514628 4.10457614 0 0 Z " fill="#A8A4A5" transform="translate(299,268)"/>
<path d="M0 0 C0.185625 0.9590625 0.185625 0.9590625 0.375 1.9375 C0.684375 2.9584375 0.684375 2.9584375 1 4 C1.66 4.33 2.32 4.66 3 5 C2.01 5.33 1.02 5.66 0 6 C-0.73323796 8.01508358 -0.73323796 8.01508358 -1 10 C-2.46726798 6.18510326 -1.43336419 3.70988378 0 0 Z " fill="#989393" transform="translate(272,265)"/>
<path d="M0 0 C0 0.66 0 1.32 0 2 C0.66 2 1.32 2 2 2 C2 2.66 2 3.32 2 4 C-0.35171131 3.40138258 -2.6859378 2.73075648 -5 2 C-5.33 1.34 -5.66 0.68 -6 0 C-3 -1 -3 -1 0 0 Z " fill="#ABA2A1" transform="translate(274,193)"/>
<path d="M0 0 C0.66 0 1.32 0 2 0 C2.33 0.66 2.66 1.32 3 2 C5.01669827 3.13350534 5.01669827 3.13350534 7 4 C6.67 5.32 6.34 6.64 6 8 C4.9970458 6.85675161 3.99770973 5.71032809 3 4.5625 C2.443125 3.92441406 1.88625 3.28632813 1.3125 2.62890625 C0 1 0 1 0 0 Z " fill="#A2A09C" transform="translate(134,334)"/>
<path d="M0 0 C0.33 0 0.66 0 1 0 C1 3.63 1 7.26 1 11 C0.67 11 0.34 11 0 11 C0 9.35 0 7.7 0 6 C-0.66 6 -1.32 6 -2 6 C-1.49396008 3.83125748 -1.00016187 2.00032373 0 0 Z " fill="#B6B2B1" transform="translate(354,301)"/>
<path d="M0 0 C0.33 0.66 0.66 1.32 1 2 C-0.4375 4.625 -0.4375 4.625 -2 7 C-2.66 6.67 -3.32 6.34 -4 6 C-3.6875 4.125 -3.6875 4.125 -3 2 C-2.01 1.34 -1.02 0.68 0 0 Z " fill="#AB9E9F" transform="translate(377,201)"/>
<path d="M0 0 C-6.4 3.07692308 -6.4 3.07692308 -9.4375 2.6875 C-9.953125 2.460625 -10.46875 2.23375 -11 2 C-3.57142857 -1.57142857 -3.57142857 -1.57142857 0 0 Z " fill="#8F8C8C" transform="translate(344,188)"/>
<path d="M0 0 C2.475 0.99 2.475 0.99 5 2 C5 2.66 5 3.32 5 4 C2.36 4 -0.28 4 -3 4 C-2.01 2.68 -1.02 1.36 0 0 Z " fill="#A5A2A2" transform="translate(162,185)"/>
<path d="M0 0 C1.1875 1.625 1.1875 1.625 2 4 C0.625 7.25 0.625 7.25 -1 10 C-2.46726798 6.18510326 -1.43336419 3.70988378 0 0 Z " fill="#B1AEAD" transform="translate(220,322)"/>
<path d="M0 0 C2.76223278 2.76223278 2.57856291 5.20706617 3 9 C2.01 8.67 1.02 8.34 0 8 C0 5.36 0 2.72 0 0 Z " fill="#989695" transform="translate(347,240)"/>
<path d="M0 0 C0.33 0.66 0.66 1.32 1 2 C0.06553465 4.03144641 -0.93224776 6.03533587 -2 8 C-2.99 8 -3.98 8 -5 8 C-3.62845496 5.04590299 -2.01136276 2.55991624 0 0 Z " fill="#A49F9F" transform="translate(151,196)"/>
</svg>
