<?xml version="1.0" encoding="UTF-8"?>
<svg version="1.1" xmlns="http://www.w3.org/2000/svg" width="499" height="499">
<path d="M0 0 C0.495 0.309375 0.99 0.61875 1.5 0.9375 C1.5 1.5975 1.5 2.2575 1.5 2.9375 C2.37140625 3.16308594 3.2428125 3.38867188 4.140625 3.62109375 C8.04686526 5.15179487 10.23368653 7.10450571 13.25 10 C16.59626715 13.36137068 16.59626715 13.36137068 20.5 15.9375 C20.5 16.5975 20.5 17.2575 20.5 17.9375 C21.49 18.2675 22.48 18.5975 23.5 18.9375 C23.5 19.5975 23.5 20.2575 23.5 20.9375 C24.16 20.9375 24.82 20.9375 25.5 20.9375 C28.27589833 23.91880306 30.74629289 27.14977136 33.2578125 30.35546875 C34.43138188 31.85010899 35.62145827 33.33174542 36.8125 34.8125 C56.17178103 59.5493591 64.94721007 91.06754988 64.8125 122.1875 C64.80926727 123.20763687 64.80926727 123.20763687 64.80596924 124.24838257 C64.68103643 148.8641171 59.56015526 174.87734474 41.51953125 192.91796875 C31.73473648 201.79431062 21.6702641 204.79886564 8.5 204.9375 C-4.15026243 203.8762929 -15.67131756 198.96296184 -24.015625 189.15625 C-25.47845239 187.05472332 -26.5 185.54347668 -26.5 182.9375 C-27.16 182.9375 -27.82 182.9375 -28.5 182.9375 C-31.38077086 177.50081117 -33.53314889 172.31169894 -35.125 166.375 C-35.44247192 165.19176147 -35.44247192 165.19176147 -35.76635742 163.98461914 C-44.17490446 131.56285655 -40.66560236 93.14320589 -23.66210938 63.92553711 C-20.39807142 58.53727183 -16.57516166 53.72324657 -12.5 48.9375 C-11.80390625 48.02097656 -11.1078125 47.10445312 -10.390625 46.16015625 C-9.45476562 45.05994141 -9.45476562 45.05994141 -8.5 43.9375 C-7.84 43.9375 -7.18 43.9375 -6.5 43.9375 C-6.5 43.2775 -6.5 42.6175 -6.5 41.9375 C-4.53852126 40.54811923 -2.53833424 39.2114589 -0.5 37.9375 C0.77513763 39.01576365 2.04492569 40.10035519 3.3125 41.1875 C4.02019531 41.79078125 4.72789062 42.3940625 5.45703125 43.015625 C7.4342127 44.87561214 9.01392197 46.66853544 10.5 48.9375 C10.5 49.5975 10.5 50.2575 10.5 50.9375 C11.16 50.9375 11.82 50.9375 12.5 50.9375 C16.5 55.29044118 16.5 55.29044118 16.5 58.9375 C15.84 58.9375 15.18 58.9375 14.5 58.9375 C14.5 59.5975 14.5 60.2575 14.5 60.9375 C13.84 60.9375 13.18 60.9375 12.5 60.9375 C12.5 61.5975 12.5 62.2575 12.5 62.9375 C11.84 62.9375 11.18 62.9375 10.5 62.9375 C10.25507813 63.48148437 10.01015625 64.02546875 9.7578125 64.5859375 C8.2178712 67.46495818 6.32022381 69.93949786 4.375 72.5625 C-8.09558817 89.96326148 -12.91304986 109.69540992 -12.8125 130.875 C-12.80758545 132.1026709 -12.8026709 133.3303418 -12.79760742 134.59521484 C-12.63544366 147.11093117 -11.79325647 161.23468701 -2.69140625 170.84765625 C2.6342591 175.53114158 6.25451036 176.43511513 13.39453125 176.32421875 C18.44967069 175.69471082 21.19870962 173.73790556 24.5 169.9375 C39.09098555 149.89362046 39.21575778 123.76809402 35.85498047 100.17773438 C33.43007325 84.87446844 28.17679552 69.82122668 19.5 56.9375 C19.5 56.2775 19.5 55.6175 19.5 54.9375 C18.84 54.9375 18.18 54.9375 17.5 54.9375 C16.2109375 53.4765625 16.2109375 53.4765625 14.875 51.5625 C14.42898437 50.93601563 13.98296875 50.30953125 13.5234375 49.6640625 C12.5 47.9375 12.5 47.9375 12.5 45.9375 C11.18 45.2775 9.86 44.6175 8.5 43.9375 C8.5 43.2775 8.5 42.6175 8.5 41.9375 C7.84 41.9375 7.18 41.9375 6.5 41.9375 C5.571875 40.7309375 5.571875 40.7309375 4.625 39.5 C-0.09181474 33.57948773 -6.8672482 29.55794039 -12.953125 25.16796875 C-13.64921875 24.65878906 -14.3453125 24.14960938 -15.0625 23.625 C-15.66191406 23.19574219 -16.26132813 22.76648438 -16.87890625 22.32421875 C-19.56492866 20.02653693 -21.28635259 18.10389938 -21.93359375 14.5703125 C-21.94243095 8.89683116 -21.59036719 5.23762961 -17.5 0.9375 C-11.44095986 -2.67462008 -6.47299851 -2.75102437 0 0 Z " fill="#2D2B2C" transform="translate(154.5,136.0625)"/>
<path d="M0 0 C0.7266687 0.00021149 1.4533374 0.00042297 2.20202637 0.00064087 C13.52613935 0.03350366 24.05903972 0.83879147 34.875 4.375 C36.64423828 4.95314453 36.64423828 4.95314453 38.44921875 5.54296875 C49.79972279 9.61649459 59.81976733 15.81515773 69.875 22.375 C70.54273438 22.79136719 71.21046875 23.20773438 71.8984375 23.63671875 C73.25923502 24.49600169 74.5749491 25.42631421 75.875 26.375 C75.875 27.035 75.875 27.695 75.875 28.375 C76.535 28.375 77.195 28.375 77.875 28.375 C77.875 29.035 77.875 29.695 77.875 30.375 C78.45765625 30.62507813 79.0403125 30.87515625 79.640625 31.1328125 C94.84323231 39.58461167 104.85092817 64.39887202 109.875 80.375 C110.07722168 81.01050781 110.27944336 81.64601563 110.48779297 82.30078125 C111.17168159 84.46751729 111.83879729 86.63873892 112.5 88.8125 C112.7064917 89.48015381 112.9129834 90.14780762 113.12573242 90.83569336 C120.70954623 116.52697971 119.6589024 146.15404182 106.97265625 169.921875 C104.949138 173.43336086 102.63785166 176.40732408 99.875 179.375 C99.215 179.375 98.555 179.375 97.875 179.375 C97.545 180.365 97.215 181.355 96.875 182.375 C94.80078125 183.91015625 94.80078125 183.91015625 92.1875 185.4375 C91.33800781 185.94410156 90.48851562 186.45070313 89.61328125 186.97265625 C83.56937208 190.06789647 78.36931188 190.76193181 71.6875 190.75 C70.42873047 190.7497583 70.42873047 190.7497583 69.14453125 190.74951172 C61.13382837 190.60271064 54.57740711 188.84327141 47.875 184.375 C47.875 183.715 47.875 183.055 47.875 182.375 C47.27558594 182.10429687 46.67617188 181.83359375 46.05859375 181.5546875 C37.46673283 176.91293079 34.48550766 166.52749829 31.7578125 157.80078125 C27.98122788 141.94777739 30.32980217 123.81821531 34.875 108.375 C35.24215778 107.01206087 35.60804598 105.64877909 35.97265625 104.28515625 C39.75856905 90.68797916 46.18537195 78.7287349 53.75 66.875 C54.22646973 66.12613525 54.70293945 65.37727051 55.19384766 64.60571289 C56.36330161 62.82299845 57.61214849 61.09281821 58.875 59.375 C59.535 59.375 60.195 59.375 60.875 59.375 C61.205 58.385 61.535 57.395 61.875 56.375 C67.5174177 58.5916641 70.36054593 63.91580235 73.5625 68.8125 C74.16449219 69.71871094 74.76648438 70.62492187 75.38671875 71.55859375 C76.97045144 74.5556312 77.50490213 77.02438062 77.875 80.375 C77.215 80.375 76.555 80.375 75.875 80.375 C75.49601562 81.40173828 75.49601562 81.40173828 75.109375 82.44921875 C73.95339563 85.18918252 72.61148651 87.74171735 71.15893555 90.33398438 C60.94983607 108.6356333 52.68939402 131.21372659 57.56640625 152.375 C59.02536493 156.0864932 60.66332435 158.17316972 63.5625 160.9375 C67.80338949 162.77788601 71.31973311 163.24907335 75.875 162.375 C78.78309543 160.51783813 78.78309543 160.51783813 80.875 158.375 C81.535 158.375 82.195 158.375 82.875 158.375 C83.16375 157.653125 83.4525 156.93125 83.75 156.1875 C84.45115531 154.43461172 85.15842855 152.68414291 85.875 150.9375 C92.55153906 133.82886865 91.17543506 117.96175785 87.875 100.375 C87.74109863 99.65940918 87.60719727 98.94381836 87.46923828 98.20654297 C85.11586928 86.20578733 80.57096443 75.14617448 73.625 65.0390625 C71.875 62.375 71.875 62.375 71.875 60.375 C71.215 60.375 70.555 60.375 69.875 60.375 C68.73107767 58.69276129 67.58789785 57.01001093 66.44921875 55.32421875 C64.17735708 52.51116918 61.42953519 50.64746829 58.44921875 48.63671875 C57.92972656 48.22035156 57.41023438 47.80398437 56.875 47.375 C56.875 46.715 56.875 46.055 56.875 45.375 C55.84052734 44.99988281 55.84052734 44.99988281 54.78515625 44.6171875 C52.06382928 43.45560096 49.599026 42.08557399 47.06933594 40.55737305 C25.83549521 27.77752811 2.93148362 27.48821697 -21.125 29.375 C-21.8365625 27.9828125 -21.8365625 27.9828125 -22.5625 26.5625 C-26.13377195 20.27087288 -31.01838311 14.48161689 -36.125 9.375 C-36.1875 7.4375 -36.1875 7.4375 -35.125 5.375 C-24.76812672 -0.60897123 -11.60906216 -0.03123915 0 0 Z " fill="#2C2B2B" transform="translate(221.125,149.625)"/>
<path d="M0 0 C3.3218785 2.66570497 5.44968648 5.97401238 6.10546875 10.16796875 C6.20115829 15.6222726 5.5135131 18.7696059 1.76953125 23.01953125 C-2.63155779 26.29746903 -7.20475198 27.04529873 -12.48046875 28.01953125 C-18.9338432 29.23404191 -25.04706571 30.7912779 -31.23046875 33.01953125 C-34.97818604 28.17543028 -38.25641713 23.37282417 -41.23046875 18.01953125 C-42.5280749 15.99258095 -43.87294515 14.00733367 -45.23046875 12.01953125 C-41.84074275 8.05320237 -38.17967061 6.36854542 -33.48046875 4.39453125 C-32.80242187 4.09546875 -32.124375 3.79640625 -31.42578125 3.48828125 C-22.20411297 -0.47388041 -9.64915751 -4.24157362 0 0 Z " fill="#353334" transform="translate(354.23046875,172.98046875)"/>
<path d="M0 0 C-0.7734375 1.175625 -0.7734375 1.175625 -1.5625 2.375 C-2.036875 3.24125 -2.51125 4.1075 -3 5 C-2.67 5.66 -2.34 6.32 -2 7 C-2.66 7 -3.32 7 -4 7 C-4 7.66 -4 8.32 -4 9 C-3.34 9.33 -2.68 9.66 -2 10 C-3.875 15.75 -3.875 15.75 -5 18 C-5.48210937 17.37351563 -5.96421875 16.74703125 -6.4609375 16.1015625 C-7.09257812 15.28429687 -7.72421875 14.46703125 -8.375 13.625 C-9.00148437 12.81289062 -9.62796875 12.00078125 -10.2734375 11.1640625 C-11.96773494 8.95776805 -11.96773494 8.95776805 -14 7 C-14.0625 5.0625 -14.0625 5.0625 -13 3 C-8.47170884 0.51387936 -5.23158464 -0.38279888 0 0 Z " fill="#424141" transform="translate(199,152)"/>
<path d="M0 0 C0.33 0 0.66 0 1 0 C2.18601548 6.25807364 2.22157147 12.37974512 2.24023438 18.73291016 C2.25004135 20.75854036 2.28116681 22.78319661 2.3125 24.80859375 C2.31765625 26.08347656 2.3228125 27.35835938 2.328125 28.671875 C2.3374707 29.8381543 2.34681641 31.00443359 2.35644531 32.20605469 C2.23881836 33.12805664 2.12119141 34.05005859 2 35 C1.01 35.66 0.02 36.32 -1 37 C-0.9278125 36.25621094 -0.855625 35.51242187 -0.78125 34.74609375 C0.20312643 23.16599877 0.09755109 11.61308179 0 0 Z " fill="#A3A2A3" transform="translate(192,242)"/>
<path d="M0 0 C1.65 0.33 3.3 0.66 5 1 C4.67 3.31 4.34 5.62 4 8 C0.63408134 6.55746343 -1.51047079 4.66735273 -4 2 C-1.525 2.495 -1.525 2.495 1 3 C0.67 2.01 0.34 1.02 0 0 Z " fill="#5D5B5C" transform="translate(282,194)"/>
<path d="M0 0 C2.97 1.65 5.94 3.3 9 5 C7.68 5.33 6.36 5.66 5 6 C4.01 6.495 4.01 6.495 3 7 C0.875 6.0625 0.875 6.0625 -1 5 C-0.67 3.35 -0.34 1.7 0 0 Z " fill="#515151" transform="translate(282,167)"/>
<path d="M0 0 C0.99 0.33 1.98 0.66 3 1 C3.33 3.31 3.66 5.62 4 8 C2.68 7.67 1.36 7.34 0 7 C-0.38133299 5.0085944 -0.71325582 3.00720923 -1 1 C-0.67 0.67 -0.34 0.34 0 0 Z " fill="#1F1F1F" transform="translate(164,188)"/>
<path d="M0 0 C0 0.33 0 0.66 0 1 C-3.3 1 -6.6 1 -10 1 C-10 1.66 -10 2.32 -10 3 C-11.65 3.33 -13.3 3.66 -15 4 C-15 3.34 -15 2.68 -15 2 C-9.37129115 -0.93161919 -6.22833095 -1.2019586 0 0 Z " fill="#A2A2A2" transform="translate(152,135)"/>
<path d="M0 0 C0.66 0 1.32 0 2 0 C3.7265625 1.75 3.7265625 1.75 5.625 4 C6.25664062 4.7425 6.88828125 5.485 7.5390625 6.25 C8.02117187 6.8275 8.50328125 7.405 9 8 C8.67 8.66 8.34 9.32 8 10 C6.88625 9.1028125 6.88625 9.1028125 5.75 8.1875 C3.52582236 6.41826778 1.28337765 4.69139085 -1 3 C-0.67 2.01 -0.34 1.02 0 0 Z " fill="#838282" transform="translate(178,157)"/>
<path d="M0 0 C0.98120464 3.05263664 0.98120464 4.94736336 0 8 C0.66 8.33 1.32 8.66 2 9 C1.360625 9.268125 0.72125 9.53625 0.0625 9.8125 C-2.33131686 10.88667752 -2.33131686 10.88667752 -3 14 C-2.40380045 9.13103697 -1.43023178 4.67209049 0 0 Z " fill="#898888" transform="translate(121,223)"/>
<path d="M0 0 C-1.4375 2 -1.4375 2 -4 4 C-7.02824418 4.35442445 -9.96485939 4.23347235 -13 4 C-9.15294495 0.15294495 -5.29192831 -0.2461362 0 0 Z " fill="#A09FA0" transform="translate(199,152)"/>
<path d="M0 0 C3.48331435 3.01887244 4.79157144 5.56909529 6 10 C3.525 9.01 3.525 9.01 1 8 C1.020625 7.236875 1.04125 6.47375 1.0625 5.6875 C1.12942841 2.89814214 1.12942841 2.89814214 0 0 Z " fill="#8C8B8B" transform="translate(315,199)"/>
<path d="M0 0 C2.6855594 2.6855594 3.06049974 5.37621328 4 9 C3.34 9 2.68 9 2 9 C2 8.34 2 7.68 2 7 C1.34 7 0.68 7 0 7 C0 4.69 0 2.38 0 0 Z M-2 7 C-1.34 7 -0.68 7 0 7 C0 7.66 0 8.32 0 9 C-0.99 9.33 -1.98 9.66 -3 10 C-2.67 9.01 -2.34 8.02 -2 7 Z " fill="#7B7A7A" transform="translate(277,299)"/>
<path d="M0 0 C0.66 0.33 1.32 0.66 2 1 C2 2.65 2 4.3 2 6 C0.02 6.66 -1.96 7.32 -4 8 C-2.87548273 5.0280615 -1.77706209 2.66559313 0 0 Z " fill="#7B7B7B" transform="translate(280,209)"/>
<path d="M0 0 C0.99 0.33 1.98 0.66 3 1 C3.33 3.31 3.66 5.62 4 8 C3.34 8 2.68 8 2 8 C0.3125 6.25 0.3125 6.25 -1 4 C-0.6875 1.75 -0.6875 1.75 0 0 Z " fill="#5C5B5C" transform="translate(289,202)"/>
<path d="M0 0 C2 1 2 1 4 3 C4 3.99 4 4.98 4 6 C2.68 5.67 1.36 5.34 0 5 C-0.5625 3.0625 -0.5625 3.0625 -1 1 C-0.67 0.67 -0.34 0.34 0 0 Z " fill="#211F20" transform="translate(264,322)"/>
<path d="M0 0 C0.33 0 0.66 0 1 0 C1.33 3.96 1.66 7.92 2 12 C1.01 12.66 0.02 13.32 -1 14 C-0.67 9.38 -0.34 4.76 0 0 Z " fill="#B0B0B0" transform="translate(192,265)"/>
<path d="M0 0 C1.98 0.99 3.96 1.98 6 3 C6 3.66 6 4.32 6 5 C6.66 5 7.32 5 8 5 C7.67 5.66 7.34 6.32 7 7 C5.0625 6.6875 5.0625 6.6875 3 6 C2.67 5.01 2.34 4.02 2 3 C1.34 2.67 0.68 2.34 0 2 C0 1.34 0 0.68 0 0 Z " fill="#8D8D8D" transform="translate(291,173)"/>
<path d="M0 0 C1.32 1.65 2.64 3.3 4 5 C2.68 5.33 1.36 5.66 0 6 C-0.66 4.68 -1.32 3.36 -2 2 C-1.34 1.34 -0.68 0.68 0 0 Z " fill="#201E1F" transform="translate(194,178)"/>
<path d="M0 0 C0 1.65 0 3.3 0 5 C-2.31 5 -4.62 5 -7 5 C-2.25 0 -2.25 0 0 0 Z " fill="#808080" transform="translate(304,308)"/>
<path d="M0 0 C2 1.3125 2 1.3125 4 3 C4 3.99 4 4.98 4 6 C3.34 6 2.68 6 2 6 C2 6.66 2 7.32 2 8 C1.34 7.67 0.68 7.34 0 7 C0 4.69 0 2.38 0 0 Z " fill="#A3A3A3" transform="translate(167,189)"/>
</svg>
